# Wavefront Obj file
# 
# verts: 36 uv-s: 74
mtllib ARMOUR.mtl

g pCube2
#pivot 0.000000 0.000000 0.000000

v -25.409151 4.697940 20.245094
v -25.409151 2.932385 20.245094
v -25.742483 4.697940 20.245094
v -25.742483 2.932385 20.245094
v -26.290869 4.223582 20.245094
v -26.229958 4.369894 20.245094
v -24.921677 4.369894 20.245094
v -24.860765 4.223582 20.245094
v -26.173090 3.564224 20.245094
v -25.909166 3.123793 20.245094
v -24.978544 3.564224 20.245094
v -25.242468 3.123793 20.245094
v -25.440456 4.595347 20.602917
v -25.409151 4.697940 20.500324
v -25.004538 4.301996 20.602917
v -24.921677 4.369894 20.500324
v -25.409151 2.932385 20.500324
v -25.455851 3.034977 20.602917
v -25.325802 3.184318 20.602917
v -25.242468 3.123793 20.500324
v -25.711178 4.595347 20.602917
v -25.742483 4.697940 20.500324
v -25.742483 2.932385 20.500324
v -25.695784 3.034977 20.602917
v -26.147097 4.301996 20.602917
v -26.229958 4.369894 20.500324
v -26.184578 4.211965 20.602917
v -26.290869 4.223582 20.500324
v -24.860765 4.223582 20.500324
v -24.967056 4.211965 20.602917
v -25.825832 3.184318 20.602917
v -25.909166 3.123793 20.500324
v -26.075407 3.600803 20.602917
v -26.173090 3.564224 20.500324
v -25.076227 3.600803 20.602917
v -24.978544 3.564224 20.500324
# 36 positions

vt 0.264918 0.528751
vt 0.264918 0.001992
vt 0.410358 0.099865
vt 0.428530 0.143518
vt 0.393391 0.340240
vt 0.314648 0.471643
vt 0.165468 0.528751
vt 0.165468 0.001992
vt 0.001855 0.143518
vt 0.020028 0.099865
vt 0.115737 0.471643
vt 0.036994 0.340240
vt 0.453446 0.687246
vt 0.484055 0.677906
vt 0.484055 0.777357
vt 0.453446 0.768017
vt 0.453446 0.557189
vt 0.484055 0.532467
vt 0.466315 0.430877
vt 0.435706 0.410620
vt 0.435706 0.383759
vt 0.466315 0.387225
vt 0.447733 0.608615
vt 0.433801 0.639224
vt 0.362216 0.639224
vt 0.348283 0.608615
vt 0.435706 0.032601
vt 0.466315 0.001992
vt 0.466315 0.059099
vt 0.435706 0.077157
vt 0.466315 0.190503
vt 0.435706 0.201417
vt 0.484055 0.922797
vt 0.453446 0.898075
vt 0.624355 0.001992
vt 0.654964 0.032601
vt 0.654964 0.077157
vt 0.624355 0.059099
vt 0.654964 0.410620
vt 0.624355 0.430877
vt 0.624355 0.387225
vt 0.654964 0.383759
vt 0.624355 0.190503
vt 0.654964 0.201417
vt 0.548206 0.430877
vt 0.624355 0.528751
vt 0.548206 0.528751
vt 0.548206 0.059099
vt 0.548206 0.001992
vt 0.542464 0.190503
vt 0.542464 0.387225
vt 0.548206 0.190503
vt 0.548206 0.387225
vt 0.466315 0.528751
vt 0.542464 0.430877
vt 0.542464 0.528751
vt 0.542464 0.001992
vt 0.542464 0.059099
vt 0.787928 0.998008
vt 0.783335 0.532467
vt 0.822135 0.577023
vt 0.896596 0.701283
vt 0.929168 0.883625
vt 0.917985 0.910486
vt 0.560204 0.677906
vt 0.560204 0.777357
vt 0.348283 0.532467
vt 0.447733 0.532467
vt 0.707157 0.998008
vt 0.711750 0.532467
vt 0.598488 0.701283
vt 0.672949 0.577023
vt 0.577099 0.910486
vt 0.565916 0.883625
# 74 texture coordinates

vn 0.000000 0.000000 -1.000000
vn 0.000000 0.000000 -1.000000
vn 0.000000 0.000000 -1.000000
vn 0.000000 0.000000 -1.000000
vn 0.000000 0.000000 -1.000000
vn 0.000000 0.000000 -1.000000
vn 0.000000 0.000000 -1.000000
vn 0.000000 0.000000 -1.000000
vn 0.000000 0.000000 -1.000000
vn 0.000000 0.000000 -1.000000
vn 0.000000 0.000000 -1.000000
vn 0.000000 0.000000 -1.000000
vn 0.201733 0.661105 0.722664
vn 0.201733 0.661105 0.722664
vn -0.201733 0.661105 0.722664
vn -0.201733 0.661105 0.722664
vn 0.534988 0.438382 0.722225
vn 0.534988 0.438382 0.722225
vn 0.688241 0.075221 0.721572
vn 0.688241 0.075221 0.721572
vn 0.000000 -0.707108 0.707105
vn 0.000000 -0.707108 0.707105
vn 0.000000 -0.707108 0.707105
vn 0.000000 -0.707108 0.707105
vn 0.533255 -0.464370 0.707107
vn 0.533255 -0.464370 0.707107
vn 0.571009 -0.414724 0.708486
vn 0.571009 -0.414724 0.708486
vn 0.656689 -0.245914 0.712942
vn 0.656689 -0.245914 0.712942
vn -0.534988 0.438382 0.722225
vn -0.534988 0.438382 0.722225
vn -0.533255 -0.464370 0.707107
vn -0.533255 -0.464370 0.707107
vn -0.571009 -0.414724 0.708486
vn -0.571009 -0.414724 0.708486
vn -0.688241 0.075221 0.721572
vn -0.688241 0.075221 0.721572
vn -0.656689 -0.245914 0.712942
vn -0.656689 -0.245914 0.712942
vn -0.558304 0.829637 0.000000
vn -0.558304 0.829637 0.000000
vn -0.558304 0.829637 0.000000
vn -0.558304 0.829637 0.000000
vn -0.809110 -0.587658 0.000000
vn -0.809110 -0.587658 0.000000
vn -0.754134 -0.656720 0.000000
vn -0.754134 -0.656720 0.000000
vn 0.936490 -0.350693 0.000000
vn 0.936490 -0.350693 0.000000
vn 0.984418 -0.175843 0.000000
vn 0.984418 -0.175843 0.000000
vn -0.936490 -0.350693 0.000000
vn -0.936490 -0.350693 0.000000
vn -0.984418 -0.175843 0.000000
vn -0.984418 -0.175843 0.000000
vn 0.558304 0.829637 0.000000
vn 0.558304 0.829637 0.000000
vn 0.558304 0.829637 0.000000
vn 0.558304 0.829637 0.000000
vn 0.754134 -0.656720 0.000000
vn 0.754134 -0.656720 0.000000
vn 0.809110 -0.587658 0.000000
vn 0.809110 -0.587658 0.000000
vn 0.000000 0.000000 1.000000
vn 0.000000 0.000000 1.000000
vn 0.000000 0.000000 1.000000
vn 0.000000 0.000000 1.000000
vn 0.000000 0.000000 1.000000
vn 0.000000 0.000000 1.000000
vn 0.000000 1.000000 0.000000
vn 0.000000 1.000000 0.000000
vn 0.000000 1.000000 0.000000
vn 0.000000 1.000000 0.000000
vn 0.000000 -1.000000 0.000000
vn 0.000000 -1.000000 0.000000
vn 0.000000 -1.000000 0.000000
vn 0.000000 -1.000000 0.000000
vn 0.000000 0.000000 1.000000
vn 0.000000 0.000000 1.000000
vn -0.923194 0.384334 0.000000
vn -0.923194 0.384334 0.000000
vn -0.923194 0.384334 0.000000
vn -0.923194 0.384334 0.000000
vn 0.923194 0.384334 0.000000
vn 0.923194 0.384334 0.000000
vn 0.923194 0.384334 0.000000
vn 0.923194 0.384334 0.000000
vn 0.000000 0.000000 1.000000
vn 0.000000 0.000000 1.000000
vn 0.000000 0.000000 1.000000
vn 0.000000 0.000000 1.000000
# 92 normals

usemtl initialShadingGroup
s 1
f 2/1/1 1/2/2 7/3/3 8/4/4 11/5/5 12/6/6
f 4/7/7 3/8/8 1/2/2 2/1/1
f 5/9/9 6/10/10 3/8/8 4/7/7 10/11/11 9/12/12
s 2
f 13/13/13 14/14/14 22/15/15 21/16/16
f 14/14/14 13/13/13 15/17/17 16/18/18
f 16/19/18 15/20/17 30/21/19 29/22/20
f 18/27/25 17/28/26 20/29/27 19/30/28
f 19/30/28 20/29/27 36/31/29 35/32/30
f 21/16/16 22/15/15 26/33/31 25/34/32
f 23/35/33 24/36/34 31/37/35 32/38/36
f 25/39/32 26/40/31 28/41/37 27/42/38
f 27/42/38 28/41/37 34/43/39 33/44/40
f 29/22/20 30/21/19 35/32/30 36/31/29
f 32/38/36 31/37/35 33/44/40 34/43/39
s 3
f 17/23/21 18/24/22 24/25/23 23/26/24
s 4
f 6/45/41 26/40/42 22/46/43 3/47/44
s 5
f 32/38/45 10/48/46 4/49/47 23/35/48
f 9/52/53 34/43/54 28/41/55 5/53/56
f 32/38/45 34/43/54 9/52/53 10/48/46
s 6
f 36/31/49 11/50/50 8/51/51 29/22/52
f 17/28/61 2/57/62 12/58/63 20/29/64
f 36/31/49 20/29/64 12/58/63 11/50/50
s 7
f 14/54/57 16/19/58 7/55/59 1/56/60
s 8
f 13/59/65 18/60/66 19/61/67 35/62/68 30/63/69 15/64/70
f 21/69/79 24/70/80 18/60/66 13/59/65
f 33/71/89 31/72/90 24/70/80 21/69/79 25/73/91 27/74/92
s 9
f 22/15/71 14/14/72 1/65/73 3/66/74
s 10
f 23/26/75 4/67/76 2/68/77 17/23/78
s 11
f 28/41/81 26/40/82 6/45/83 5/53/84
s 12
f 16/19/85 29/22/86 8/51/87 7/55/88

# 30 faces
