# Wavefront Obj file
# 
# verts: 24 uv-s: 72
mtllib HEALTH.mtl

g pCube1
#pivot 0.000000 0.000000 0.000000

v 4.951537 0.444420 -40.071724
v 5.639979 0.444420 -40.071724
v 4.951537 3.709819 -40.071724
v 5.639979 3.709819 -40.071724
v 4.951537 3.709819 -40.760170
v 5.639979 3.709819 -40.760170
v 4.951537 0.444420 -40.760170
v 5.639979 0.444420 -40.760170
v 5.639979 2.455538 -40.071724
v 4.951537 2.455538 -40.071724
v 4.951537 2.455538 -40.760170
v 5.639979 2.455538 -40.760170
v 5.639979 1.698701 -40.071724
v 4.951537 1.698701 -40.071724
v 4.951537 1.698701 -40.760170
v 5.639979 1.698701 -40.760170
v 3.800292 1.698701 -40.071724
v 3.800292 1.698701 -40.760170
v 3.800292 2.455538 -40.071724
v 3.800292 2.455538 -40.760170
v 6.791224 1.698701 -40.760170
v 6.791224 1.698701 -40.071724
v 6.791224 2.455538 -40.760170
v 6.791224 2.455538 -40.071724
# 24 positions

vt 0.157934 0.001992
vt 0.251415 0.001992
vt 0.251415 0.172307
vt 0.157934 0.172307
vt 0.596804 0.895239
vt 0.690285 0.895239
vt 0.690285 0.988721
vt 0.596804 0.988721
vt 0.556287 0.721700
vt 0.649768 0.721700
vt 0.649768 0.892015
vt 0.556287 0.892015
vt 0.695976 0.895239
vt 0.789458 0.895239
vt 0.789458 0.988721
vt 0.695976 0.988721
vt 0.301525 0.448616
vt 0.395007 0.448616
vt 0.395007 0.618931
vt 0.301525 0.618931
vt 0.203087 0.448616
vt 0.296569 0.448616
vt 0.296569 0.618931
vt 0.203087 0.618931
vt 0.157934 0.275076
vt 0.251415 0.275076
vt 0.251415 0.445392
vt 0.157934 0.445392
vt 0.104649 0.448616
vt 0.198131 0.448616
vt 0.198131 0.618931
vt 0.104649 0.618931
vt 0.556287 0.448616
vt 0.649768 0.448616
vt 0.649768 0.618931
vt 0.556287 0.618931
vt 0.006211 0.448616
vt 0.099694 0.448616
vt 0.099694 0.618931
vt 0.006211 0.618931
vt 0.398458 0.895239
vt 0.491940 0.895239
vt 0.491940 0.998008
vt 0.398458 0.998008
vt 0.497631 0.895239
vt 0.591113 0.895239
vt 0.591113 0.998008
vt 0.497631 0.998008
vt 0.001609 0.622155
vt 0.095091 0.622155
vt 0.095091 0.778480
vt 0.001609 0.778480
vt 0.001609 0.275076
vt 0.001609 0.172307
vt 0.100939 0.622155
vt 0.194422 0.622155
vt 0.194422 0.778480
vt 0.100939 0.778480
vt 0.399962 0.721700
vt 0.399962 0.618931
vt 0.293594 0.778479
vt 0.200112 0.778479
vt 0.200112 0.622155
vt 0.293594 0.622155
vt 0.806093 0.618931
vt 0.806093 0.721700
vt 0.392767 0.778480
vt 0.299285 0.778480
vt 0.299285 0.622155
vt 0.392767 0.622155
vt 0.407740 0.172307
vt 0.407740 0.275076
# 72 texture coordinates

vn 0.000000 0.000000 1.000000
vn 0.000000 0.000000 1.000000
vn 0.000000 0.000000 1.000000
vn 0.000000 0.000000 1.000000
vn 0.000000 1.000000 0.000000
vn 0.000000 1.000000 0.000000
vn 0.000000 1.000000 0.000000
vn 0.000000 1.000000 0.000000
vn 0.000000 0.000000 -1.000000
vn 0.000000 0.000000 -1.000000
vn 0.000000 0.000000 -1.000000
vn 0.000000 0.000000 -1.000000
vn 0.000000 -1.000000 0.000000
vn 0.000000 -1.000000 0.000000
vn 0.000000 -1.000000 0.000000
vn 0.000000 -1.000000 0.000000
vn 1.000000 0.000000 0.000000
vn 1.000000 0.000000 0.000000
vn 1.000000 0.000000 0.000000
vn 1.000000 0.000000 0.000000
vn -1.000000 0.000000 0.000000
vn -1.000000 0.000000 0.000000
vn -1.000000 0.000000 0.000000
vn -1.000000 0.000000 0.000000
vn 0.000000 0.000000 1.000000
vn 0.000000 0.000000 1.000000
vn 0.000000 0.000000 1.000000
vn 0.000000 0.000000 1.000000
vn -1.000000 0.000000 0.000000
vn -1.000000 0.000000 0.000000
vn -1.000000 0.000000 0.000000
vn -1.000000 0.000000 0.000000
vn 0.000000 0.000000 -1.000000
vn 0.000000 0.000000 -1.000000
vn 0.000000 0.000000 -1.000000
vn 0.000000 0.000000 -1.000000
vn 1.000000 0.000000 0.000000
vn 1.000000 0.000000 0.000000
vn 1.000000 0.000000 0.000000
vn 1.000000 0.000000 0.000000
vn -1.000000 0.000000 0.000000
vn -1.000000 0.000000 0.000000
vn -1.000000 0.000000 0.000000
vn -1.000000 0.000000 0.000000
vn 1.000000 0.000000 0.000000
vn 1.000000 0.000000 0.000000
vn 1.000000 0.000000 0.000000
vn 1.000000 0.000000 0.000000
vn 0.000000 -1.000000 0.000000
vn 0.000000 -1.000000 0.000000
vn 0.000000 -1.000000 0.000000
vn 0.000000 -1.000000 0.000000
vn 0.000000 0.000000 1.000000
vn 0.000000 0.000000 1.000000
vn 0.000000 1.000000 0.000000
vn 0.000000 1.000000 0.000000
vn 0.000000 1.000000 0.000000
vn 0.000000 1.000000 0.000000
vn 0.000000 0.000000 -1.000000
vn 0.000000 0.000000 -1.000000
vn 0.000000 -1.000000 0.000000
vn 0.000000 -1.000000 0.000000
vn 0.000000 -1.000000 0.000000
vn 0.000000 -1.000000 0.000000
vn 0.000000 0.000000 -1.000000
vn 0.000000 0.000000 -1.000000
vn 0.000000 1.000000 0.000000
vn 0.000000 1.000000 0.000000
vn 0.000000 1.000000 0.000000
vn 0.000000 1.000000 0.000000
vn 0.000000 0.000000 1.000000
vn 0.000000 0.000000 1.000000
# 72 normals

usemtl initialShadingGroup
s 1
f 1/1/1 2/2/2 13/3/3 14/4/4
f 10/25/25 9/26/26 4/27/27 3/28/28
f 14/4/4 13/3/3 9/26/26 10/25/25
f 14/4/4 10/25/25 19/53/53 17/54/54
f 9/26/26 13/3/3 22/71/71 24/72/72
s 2
f 3/5/5 4/6/6 6/7/7 5/8/8
s 3
f 15/9/9 16/10/10 8/11/11 7/12/12
f 5/33/33 6/34/34 12/35/35 11/36/36
f 11/36/36 12/35/35 16/10/10 15/9/9
f 11/36/36 15/9/9 18/59/59 20/60/60
f 16/10/10 12/35/35 23/65/65 21/66/66
s 4
f 7/13/13 8/14/14 2/15/15 1/16/16
s 5
f 2/17/17 8/18/18 16/19/19 13/20/20
s 6
f 7/21/21 1/22/22 14/23/23 15/24/24
s 7
f 11/29/29 10/30/30 3/31/31 5/32/32
s 8
f 9/37/37 12/38/38 6/39/39 4/40/40
s 9
f 18/41/41 17/42/42 19/43/43 20/44/44
s 10
f 22/45/45 21/46/46 23/47/47 24/48/48
s 11
f 15/49/49 14/50/50 17/51/51 18/52/52
s 12
f 10/55/55 11/56/56 20/57/57 19/58/58
s 13
f 13/61/61 16/62/62 21/63/63 22/64/64
s 14
f 12/67/67 9/68/68 24/69/69 23/70/70

# 22 faces
