# This file uses centimeters as units for non-parametric coordinates.

mtllib Door_BARS_UNTEXTURED.mtl
g default
v -28.146996 -0.051701 0.725739
v -28.138062 -0.051701 0.743263
v -28.124153 -0.051701 0.757172
v -28.106628 -0.051701 0.766106
v -28.087204 -0.051701 0.769180
v -28.067780 -0.051701 0.766106
v -28.050255 -0.051701 0.757172
v -28.036346 -0.051701 0.743263
v -28.027412 -0.051701 0.725739
v -28.024338 -0.051701 0.706314
v -28.027412 -0.051701 0.686890
v -28.036346 -0.051701 0.669365
v -28.050255 -0.051701 0.655457
v -28.067780 -0.051701 0.646523
v -28.087204 -0.051701 0.643448
v -28.106628 -0.051701 0.646523
v -28.124153 -0.051701 0.655457
v -28.138062 -0.051701 0.669365
v -28.146996 -0.051701 0.686890
v -28.150070 -0.051701 0.706314
v -28.146996 8.881624 0.725739
v -28.138062 8.881624 0.743263
v -28.124153 8.881624 0.757172
v -28.106628 8.881624 0.766106
v -28.087204 8.881624 0.769180
v -28.067780 8.881624 0.766106
v -28.050255 8.881624 0.757172
v -28.036346 8.881624 0.743263
v -28.027412 8.881624 0.725739
v -28.024338 8.881624 0.706314
v -28.027412 8.881624 0.686890
v -28.036346 8.881624 0.669365
v -28.050255 8.881624 0.655457
v -28.067780 8.881624 0.646523
v -28.087204 8.881624 0.643448
v -28.106628 8.881624 0.646523
v -28.124153 8.881624 0.655457
v -28.138062 8.881624 0.669365
v -28.146996 8.881624 0.686890
v -28.150070 8.881624 0.706314
v -28.087204 -0.051701 0.706314
v -28.087204 8.881624 0.706314
v -28.146996 -0.067164 -0.594902
v -28.138062 -0.067164 -0.577377
v -28.124153 -0.067164 -0.563469
v -28.106628 -0.067164 -0.554535
v -28.087204 -0.067164 -0.551460
v -28.067780 -0.067164 -0.554535
v -28.050255 -0.067164 -0.563469
v -28.036346 -0.067164 -0.577377
v -28.027412 -0.067164 -0.594902
v -28.024338 -0.067164 -0.614326
v -28.027412 -0.067164 -0.633751
v -28.036346 -0.067164 -0.651276
v -28.050255 -0.067164 -0.665184
v -28.067780 -0.067164 -0.674118
v -28.087204 -0.067164 -0.677193
v -28.106628 -0.067164 -0.674118
v -28.124153 -0.067164 -0.665184
v -28.138062 -0.067164 -0.651276
v -28.146996 -0.067164 -0.633751
v -28.150070 -0.067164 -0.614326
v -28.146996 8.881624 -0.594902
v -28.138062 8.881624 -0.577377
v -28.124153 8.881624 -0.563469
v -28.106628 8.881624 -0.554535
v -28.087204 8.881624 -0.551460
v -28.067780 8.881624 -0.554535
v -28.050255 8.881624 -0.563469
v -28.036346 8.881624 -0.577377
v -28.027412 8.881624 -0.594902
v -28.024338 8.881624 -0.614326
v -28.027412 8.881624 -0.633751
v -28.036346 8.881624 -0.651276
v -28.050255 8.881624 -0.665184
v -28.067780 8.881624 -0.674118
v -28.087204 8.881624 -0.677193
v -28.106628 8.881624 -0.674118
v -28.124153 8.881624 -0.665184
v -28.138062 8.881624 -0.651276
v -28.146996 8.881624 -0.633751
v -28.150070 8.881624 -0.614326
v -28.087204 -0.067164 -0.614326
v -28.087204 8.881624 -0.614326
vt 0.756981 0.000000
vt 0.757844 0.000000
vt 0.757844 0.440060
vt 0.756981 0.440060
vt 0.758529 0.000000
vt 0.758529 0.440060
vt 0.797844 0.000000
vt 0.798670 0.000000
vt 0.798670 0.421540
vt 0.797844 0.421540
vt 0.799587 0.000000
vt 0.799587 0.421540
vt 0.800504 0.000000
vt 0.800504 0.421540
vt 0.801331 0.000000
vt 0.801331 0.421540
vt 0.761578 0.000000
vt 0.762263 0.000000
vt 0.762263 0.440060
vt 0.761578 0.440060
vt 0.763126 0.000000
vt 0.763126 0.440060
vt 0.764083 0.000000
vt 0.764083 0.440060
vt 0.765040 0.000000
vt 0.765040 0.440060
vt 0.765903 0.000000
vt 0.765903 0.440060
vt 0.766589 0.000000
vt 0.766589 0.440060
vt 0.797301 0.421540
vt 0.796474 0.421540
vt 0.796474 0.000000
vt 0.797301 0.000000
vt 0.795558 0.421540
vt 0.795558 0.000000
vt 0.794641 0.421540
vt 0.794641 0.000000
vt 0.793814 0.421540
vt 0.793814 0.000000
vt 0.753519 0.000000
vt 0.754204 0.000000
vt 0.754204 0.440060
vt 0.753519 0.440060
vt 0.755067 0.000000
vt 0.755067 0.440060
vt 0.756024 0.000000
vt 0.756024 0.440060
vt 0.145598 0.393644
vt 0.144796 0.394052
vt 0.143908 0.391318
vt 0.146234 0.393007
vt 0.146642 0.392206
vt 0.146783 0.391318
vt 0.146642 0.390429
vt 0.146234 0.389628
vt 0.145598 0.388992
vt 0.144796 0.388583
vt 0.143908 0.388443
vt 0.143020 0.388583
vt 0.142218 0.388992
vt 0.141582 0.389628
vt 0.141174 0.390429
vt 0.141033 0.391318
vt 0.141174 0.392206
vt 0.141582 0.393007
vt 0.142218 0.393644
vt 0.143020 0.394052
vt 0.143908 0.394193
vt 0.207492 0.045848
vt 0.206690 0.045439
vt 0.208380 0.043113
vt 0.206054 0.044803
vt 0.205646 0.044002
vt 0.205505 0.043113
vt 0.205646 0.042225
vt 0.206054 0.041424
vt 0.206690 0.040788
vt 0.207492 0.040379
vt 0.208380 0.040239
vt 0.209269 0.040379
vt 0.210070 0.040788
vt 0.210706 0.041424
vt 0.211115 0.042225
vt 0.211255 0.043113
vt 0.211115 0.044002
vt 0.210706 0.044803
vt 0.210070 0.045439
vt 0.209269 0.045848
vt 0.208380 0.045989
vt 0.748922 0.000000
vt 0.749785 0.000000
vt 0.749785 0.440826
vt 0.748922 0.440826
vt 0.750470 0.000000
vt 0.750470 0.440826
vt 0.785755 0.000000
vt 0.786582 0.000000
vt 0.786582 0.422270
vt 0.785755 0.422270
vt 0.787499 0.000000
vt 0.787499 0.422270
vt 0.788415 0.000000
vt 0.788415 0.422270
vt 0.789242 0.000000
vt 0.789242 0.422270
vt 0.737401 0.000000
vt 0.738086 0.000000
vt 0.738086 0.440826
vt 0.737401 0.440826
vt 0.738949 0.000000
vt 0.738949 0.440826
vt 0.739906 0.000000
vt 0.739906 0.440826
vt 0.740863 0.000000
vt 0.740863 0.440826
vt 0.741726 0.000000
vt 0.741726 0.440826
vt 0.742411 0.000000
vt 0.742411 0.440826
vt 0.793272 0.422270
vt 0.792445 0.422270
vt 0.792445 0.000000
vt 0.793272 0.000000
vt 0.791528 0.422270
vt 0.791528 0.000000
vt 0.790612 0.422270
vt 0.790612 0.000000
vt 0.789785 0.422270
vt 0.789785 0.000000
vt 0.745460 0.000000
vt 0.746145 0.000000
vt 0.746145 0.440826
vt 0.745460 0.440826
vt 0.747008 0.000000
vt 0.747008 0.440826
vt 0.747965 0.000000
vt 0.747965 0.440826
vt 0.177834 0.192070
vt 0.177032 0.192478
vt 0.176144 0.189744
vt 0.178470 0.191434
vt 0.178879 0.190632
vt 0.179019 0.189744
vt 0.178879 0.188856
vt 0.178470 0.188054
vt 0.177834 0.187418
vt 0.177032 0.187010
vt 0.176144 0.186869
vt 0.175256 0.187010
vt 0.174454 0.187418
vt 0.173818 0.188054
vt 0.173410 0.188856
vt 0.173269 0.189744
vt 0.173410 0.190632
vt 0.173818 0.191434
vt 0.174454 0.192070
vt 0.175256 0.192478
vt 0.176144 0.192619
vt 0.171226 0.176084
vt 0.170425 0.175675
vt 0.172115 0.173349
vt 0.169789 0.175039
vt 0.169380 0.174237
vt 0.169240 0.173349
vt 0.169380 0.172461
vt 0.169789 0.171659
vt 0.170425 0.171023
vt 0.171226 0.170615
vt 0.172115 0.170474
vt 0.173003 0.170615
vt 0.173804 0.171023
vt 0.174440 0.171659
vt 0.174849 0.172461
vt 0.174990 0.173349
vt 0.174849 0.174237
vt 0.174440 0.175039
vt 0.173804 0.175675
vt 0.173003 0.176084
vt 0.172115 0.176224
vn -0.951033 0.000000 0.309091
vn -0.808957 0.000000 0.587868
vn -0.808957 0.000000 0.587868
vn -0.951033 0.000000 0.309091
vn -0.587868 0.000000 0.808957
vn -0.587868 0.000000 0.808957
vn -0.309091 0.000000 0.951033
vn -0.309091 0.000000 0.951033
vn 0.000000 0.000000 1.000000
vn 0.000000 0.000000 1.000000
vn 0.309091 0.000000 0.951033
vn 0.309091 0.000000 0.951033
vn 0.587868 0.000000 0.808957
vn 0.587868 0.000000 0.808957
vn 0.808957 0.000000 0.587868
vn 0.808957 0.000000 0.587868
vn 0.951033 0.000000 0.309091
vn 0.951033 0.000000 0.309091
vn 1.000000 0.000000 0.000000
vn 1.000000 0.000000 0.000000
vn 0.951033 0.000000 -0.309090
vn 0.951033 0.000000 -0.309090
vn 0.808957 0.000000 -0.587868
vn 0.808957 0.000000 -0.587868
vn 0.587868 0.000000 -0.808957
vn 0.587868 0.000000 -0.808957
vn 0.309091 0.000000 -0.951033
vn 0.309091 0.000000 -0.951033
vn 0.000000 0.000000 -1.000000
vn 0.000000 0.000000 -1.000000
vn -0.309091 0.000000 -0.951033
vn -0.309091 0.000000 -0.951033
vn -0.587868 0.000000 -0.808957
vn -0.587868 0.000000 -0.808957
vn -0.808957 0.000000 -0.587868
vn -0.808957 0.000000 -0.587868
vn -0.951033 0.000000 -0.309090
vn -0.951033 0.000000 -0.309090
vn -1.000000 0.000000 0.000000
vn -1.000000 0.000000 0.000000
vn 0.000000 -1.000000 -0.000000
vn 0.000000 -1.000000 0.000000
vn 0.000000 -1.000000 0.000000
vn 0.000000 -1.000000 -0.000000
vn 0.000000 -1.000000 0.000000
vn 0.000000 -1.000000 0.000000
vn 0.000000 -1.000000 0.000000
vn 0.000000 -1.000000 -0.000000
vn 0.000000 -1.000000 -0.000000
vn 0.000000 -1.000000 0.000000
vn 0.000000 -1.000000 0.000000
vn 0.000000 -1.000000 0.000000
vn 0.000000 -1.000000 0.000000
vn 0.000000 -1.000000 0.000000
vn 0.000000 -1.000000 0.000000
vn 0.000000 -1.000000 0.000000
vn 0.000000 -1.000000 0.000000
vn 0.000000 -1.000000 0.000000
vn 0.000000 -1.000000 0.000000
vn 0.000000 -1.000000 0.000000
vn 0.000000 -1.000000 0.000000
vn 0.000000 1.000000 0.000000
vn 0.000000 1.000000 0.000000
vn 0.000000 1.000000 0.000000
vn 0.000000 1.000000 0.000000
vn 0.000000 1.000000 0.000000
vn 0.000000 1.000000 0.000000
vn 0.000000 1.000000 0.000000
vn 0.000000 1.000000 -0.000024
vn 0.000000 1.000000 -0.000024
vn 0.000000 1.000000 0.000000
vn 0.000000 1.000000 0.000000
vn 0.000000 1.000000 0.000000
vn 0.000000 1.000000 0.000000
vn 0.000000 1.000000 0.000000
vn 0.000000 1.000000 0.000000
vn 0.000000 1.000000 0.000000
vn 0.000000 1.000000 0.000000
vn 0.000000 1.000000 0.000024
vn 0.000000 1.000000 0.000024
vn 0.000000 1.000000 0.000000
vn 0.000000 1.000000 0.000000
vn -0.951033 0.000000 0.309090
vn -0.808957 0.000000 0.587868
vn -0.808957 0.000000 0.587868
vn -0.951033 0.000000 0.309090
vn -0.587868 0.000000 0.808957
vn -0.587868 0.000000 0.808957
vn -0.309091 0.000000 0.951032
vn -0.309091 0.000000 0.951032
vn 0.000000 0.000000 1.000000
vn 0.000000 0.000000 1.000000
vn 0.309091 0.000000 0.951032
vn 0.309091 0.000000 0.951032
vn 0.587868 0.000000 0.808957
vn 0.587868 0.000000 0.808957
vn 0.808957 0.000000 0.587868
vn 0.808957 0.000000 0.587868
vn 0.951033 0.000000 0.309090
vn 0.951033 0.000000 0.309090
vn 1.000000 0.000000 0.000000
vn 1.000000 0.000000 0.000000
vn 0.951033 0.000000 -0.309091
vn 0.951033 0.000000 -0.309091
vn 0.808957 0.000000 -0.587868
vn 0.808957 0.000000 -0.587868
vn 0.587868 0.000000 -0.808957
vn 0.587868 0.000000 -0.808957
vn 0.309090 0.000000 -0.951033
vn 0.309090 0.000000 -0.951033
vn 0.000000 0.000000 -1.000000
vn 0.000000 0.000000 -1.000000
vn -0.309090 0.000000 -0.951033
vn -0.309090 0.000000 -0.951033
vn -0.587868 0.000000 -0.808957
vn -0.587868 0.000000 -0.808957
vn -0.808957 0.000000 -0.587868
vn -0.808957 0.000000 -0.587868
vn -0.951033 0.000000 -0.309091
vn -0.951033 0.000000 -0.309091
vn -1.000000 0.000000 0.000000
vn -1.000000 0.000000 0.000000
vn 0.000000 -1.000000 0.000000
vn 0.000000 -1.000000 0.000000
vn 0.000000 -1.000000 0.000000
vn 0.000000 -1.000000 -0.000000
vn 0.000000 -1.000000 -0.000000
vn 0.000000 -1.000000 0.000000
vn 0.000000 -1.000000 0.000000
vn 0.000000 -1.000000 0.000000
vn 0.000000 -1.000000 0.000000
vn 0.000000 -1.000000 0.000000
vn 0.000000 -1.000000 0.000000
vn 0.000000 -1.000000 -0.000000
vn 0.000000 -1.000000 -0.000000
vn 0.000000 -1.000000 0.000000
vn 0.000000 -1.000000 0.000000
vn 0.000000 -1.000000 0.000000
vn 0.000000 -1.000000 0.000000
vn 0.000000 -1.000000 0.000000
vn 0.000000 -1.000000 0.000000
vn 0.000000 -1.000000 0.000000
vn 0.000000 -1.000000 0.000000
vn 0.000000 1.000000 0.000000
vn 0.000000 1.000000 0.000000
vn 0.000000 1.000000 0.000000
vn 0.000000 1.000000 0.000000
vn 0.000000 1.000000 0.000000
vn 0.000000 1.000000 0.000000
vn 0.000000 1.000000 0.000000
vn 0.000000 1.000000 -0.000024
vn 0.000000 1.000000 -0.000024
vn 0.000000 1.000000 0.000000
vn 0.000000 1.000000 0.000000
vn 0.000000 1.000000 0.000000
vn 0.000000 1.000000 0.000000
vn 0.000000 1.000000 0.000000
vn 0.000000 1.000000 0.000000
vn 0.000000 1.000000 0.000000
vn 0.000000 1.000000 0.000000
vn 0.000000 1.000000 0.000024
vn 0.000000 1.000000 0.000024
vn 0.000000 1.000000 0.000000
vn 0.000000 1.000000 0.000000
s 1
g polySurface456
usemtl initialShadingGroup
f 1/1/1 2/2/2 22/3/3 21/4/4
f 2/2/2 3/5/5 23/6/6 22/3/3
f 3/7/5 4/8/7 24/9/8 23/10/6
f 4/8/7 5/11/9 25/12/10 24/9/8
f 5/11/9 6/13/11 26/14/12 25/12/10
f 6/13/11 7/15/13 27/16/14 26/14/12
f 7/17/13 8/18/15 28/19/16 27/20/14
f 8/18/15 9/21/17 29/22/18 28/19/16
f 9/21/17 10/23/19 30/24/20 29/22/18
f 10/23/19 11/25/21 31/26/22 30/24/20
f 11/25/21 12/27/23 32/28/24 31/26/22
f 12/27/23 13/29/25 33/30/26 32/28/24
f 13/31/25 14/32/27 34/33/28 33/34/26
f 14/32/27 15/35/29 35/36/30 34/33/28
f 15/35/29 16/37/31 36/38/32 35/36/30
f 16/37/31 17/39/33 37/40/34 36/38/32
f 17/41/33 18/42/35 38/43/36 37/44/34
f 18/42/35 19/45/37 39/46/38 38/43/36
f 19/45/37 20/47/39 40/48/40 39/46/38
f 20/47/39 1/1/1 21/4/4 40/48/40
s 2
f 2/49/41 1/50/42 41/51/43
f 3/52/44 2/49/41 41/51/43
f 4/53/45 3/52/44 41/51/43
f 5/54/46 4/53/45 41/51/43
f 6/55/47 5/54/46 41/51/43
f 7/56/48 6/55/47 41/51/43
f 8/57/49 7/56/48 41/51/43
f 9/58/50 8/57/49 41/51/43
f 10/59/51 9/58/50 41/51/43
f 11/60/52 10/59/51 41/51/43
f 12/61/53 11/60/52 41/51/43
f 13/62/54 12/61/53 41/51/43
f 14/63/55 13/62/54 41/51/43
f 15/64/56 14/63/55 41/51/43
f 16/65/57 15/64/56 41/51/43
f 17/66/58 16/65/57 41/51/43
f 18/67/59 17/66/58 41/51/43
f 19/68/60 18/67/59 41/51/43
f 20/69/61 19/68/60 41/51/43
f 1/50/42 20/69/61 41/51/43
s 3
f 21/70/62 22/71/63 42/72/64
f 22/71/63 23/73/65 42/72/64
f 23/73/65 24/74/66 42/72/64
f 24/74/66 25/75/67 42/72/64
f 25/75/67 26/76/68 42/72/64
f 26/76/68 27/77/69 42/72/64
f 27/77/69 28/78/70 42/72/64
f 28/78/70 29/79/71 42/72/64
f 29/79/71 30/80/72 42/72/64
f 30/80/72 31/81/73 42/72/64
f 31/81/73 32/82/74 42/72/64
f 32/82/74 33/83/75 42/72/64
f 33/83/75 34/84/76 42/72/64
f 34/84/76 35/85/77 42/72/64
f 35/85/77 36/86/78 42/72/64
f 36/86/78 37/87/79 42/72/64
f 37/87/79 38/88/80 42/72/64
f 38/88/80 39/89/81 42/72/64
f 39/89/81 40/90/82 42/72/64
f 40/90/82 21/70/62 42/72/64
s 4
f 43/91/83 44/92/84 64/93/85 63/94/86
f 44/92/84 45/95/87 65/96/88 64/93/85
f 45/97/87 46/98/89 66/99/90 65/100/88
f 46/98/89 47/101/91 67/102/92 66/99/90
f 47/101/91 48/103/93 68/104/94 67/102/92
f 48/103/93 49/105/95 69/106/96 68/104/94
f 49/107/95 50/108/97 70/109/98 69/110/96
f 50/108/97 51/111/99 71/112/100 70/109/98
f 51/111/99 52/113/101 72/114/102 71/112/100
f 52/113/101 53/115/103 73/116/104 72/114/102
f 53/115/103 54/117/105 74/118/106 73/116/104
f 54/117/105 55/119/107 75/120/108 74/118/106
f 55/121/107 56/122/109 76/123/110 75/124/108
f 56/122/109 57/125/111 77/126/112 76/123/110
f 57/125/111 58/127/113 78/128/114 77/126/112
f 58/127/113 59/129/115 79/130/116 78/128/114
f 59/131/115 60/132/117 80/133/118 79/134/116
f 60/132/117 61/135/119 81/136/120 80/133/118
f 61/135/119 62/137/121 82/138/122 81/136/120
f 62/137/121 43/91/83 63/94/86 82/138/122
s 5
f 44/139/123 43/140/124 83/141/125
f 45/142/126 44/139/123 83/141/125
f 46/143/127 45/142/126 83/141/125
f 47/144/128 46/143/127 83/141/125
f 48/145/129 47/144/128 83/141/125
f 49/146/130 48/145/129 83/141/125
f 50/147/131 49/146/130 83/141/125
f 51/148/132 50/147/131 83/141/125
f 52/149/133 51/148/132 83/141/125
f 53/150/134 52/149/133 83/141/125
f 54/151/135 53/150/134 83/141/125
f 55/152/136 54/151/135 83/141/125
f 56/153/137 55/152/136 83/141/125
f 57/154/138 56/153/137 83/141/125
f 58/155/139 57/154/138 83/141/125
f 59/156/140 58/155/139 83/141/125
f 60/157/141 59/156/140 83/141/125
f 61/158/142 60/157/141 83/141/125
f 62/159/143 61/158/142 83/141/125
f 43/140/124 62/159/143 83/141/125
s 6
f 63/160/144 64/161/145 84/162/146
f 64/161/145 65/163/147 84/162/146
f 65/163/147 66/164/148 84/162/146
f 66/164/148 67/165/149 84/162/146
f 67/165/149 68/166/150 84/162/146
f 68/166/150 69/167/151 84/162/146
f 69/167/151 70/168/152 84/162/146
f 70/168/152 71/169/153 84/162/146
f 71/169/153 72/170/154 84/162/146
f 72/170/154 73/171/155 84/162/146
f 73/171/155 74/172/156 84/162/146
f 74/172/156 75/173/157 84/162/146
f 75/173/157 76/174/158 84/162/146
f 76/174/158 77/175/159 84/162/146
f 77/175/159 78/176/160 84/162/146
f 78/176/160 79/177/161 84/162/146
f 79/177/161 80/178/162 84/162/146
f 80/178/162 81/179/163 84/162/146
f 81/179/163 82/180/164 84/162/146
f 82/180/164 63/160/144 84/162/146
